<svg xmlns="http://www.w3.org/2000/svg" viewBox="0 0 146.33 146.33"><defs><style>.cls-1{fill:#006837;}</style></defs><g id="Layer_2" data-name="Layer 2"><g id="Layer_1-2" data-name="Layer 1"><path class="cls-1" d="M146.33,112.23V75.72A5.52,5.52,0,0,0,143.58,71L123.87,59.58l11.38-19.71a5.51,5.51,0,0,0,0-5.5L117,2.75A5.5,5.5,0,0,0,112.23,0H75.72A5.52,5.52,0,0,0,71,2.75L59.58,22.46,39.87,11.08a5.51,5.51,0,0,0-5.5,0L2.75,29.33A5.52,5.52,0,0,0,0,34.1V70.61a5.5,5.5,0,0,0,2.75,4.76L34.37,93.63a5.51,5.51,0,0,0,5.5,0L63.09,80.22l-29,49.65L27.84,119a5.51,5.51,0,0,0-8.44-1.34,5.63,5.63,0,0,0-1,7l10.92,18.91a5.53,5.53,0,0,0,2,2,5.62,5.62,0,0,0,2.74.74,5.52,5.52,0,0,0,4.76-2.73l33.24-57v25.6A5.48,5.48,0,0,0,74.84,117l31.62,18.26a5.51,5.51,0,0,0,5.5,0L143.58,117A5.5,5.5,0,0,0,146.33,112.23Z"/></g></g></svg>