<svg xmlns="http://www.w3.org/2000/svg" viewBox="0 0 272.78 272.25">
    <defs>
        <style>
            .cls-1,.cls-3{ 
                fill:#112233;}
            .cls-1,.cls-2{
                stroke:#000;}
            .cls-1,.cls-2,.cls-4{
                stroke-miterlimit:10;}
            .cls-1{
                stroke-width:1.2px;}
            .cls-2,.cls-4{
                fill:#edf3f8;}
            .cls-2{
                stroke-width:0.55px;}
            .cls-4{
                stroke:#333;
                stroke-linecap:round;
                stroke-width:0.5px;}
        </style>
    </defs>
        <g id="Layer_2" data-name="Layer 2">
            <g id="Layer_1-2" data-name="Layer 1">
                <path id="corpo" class="cls-1" d="M252.48,101.33c-21-34-39-44-44.71-47.87-1.49-4.9-5.56-12.6-7.94-16.85,14.29-20.44-11.05-44-30.38-28.2a73.88,73.88,0,0,0-66.12,0C96.06,2.48,87.94,2.1,81.4,5c-.85.38.78,4.34,0,4.83-.6.37-3.65-2.75-4.21-2.32C69,13.72,65.26,25.61,73,36.61c-2.39,4.25-6.45,12-7.94,16.85C59.3,57.33,41.3,67.33,20.3,101.33c-24.92,40.34-24.46,75-8.31,77.42,5.86-1,8.82-7.78,10-10,1.89-3.89,5.31-4.28,7,.27a152.86,152.86,0,0,0,15.9,50.37c16,30,47.43,55.85,59.43,51.85,10.9-4,13-24.62,32.07-25.42,19.09.8,21.17,21.45,32.07,25.42,12,4,43.43-21.85,59.43-51.85A153.41,153.41,0,0,0,243.79,169c1.68-4.55,5.11-4.16,7-.27,1.17,2.22,4.13,9,10,10C276.94,176.33,277.39,141.67,252.48,101.33Z"/>
                <path id="barriga" class="cls-2" d="M198.36,62.11a63.44,63.44,0,0,0-123.94,0,98.15,98.15,0,1,0,123.94,0Z"/>
                    <g id="gola">
                        <path class="cls-3" d="M123.67,103.19c-2.58-2.88-5.84-6.71-8.5-7.68s-4.4-1.44-6.82-2.53A72.4,72.4,0,0,1,74.57,62.37c-.12.52-1.89,1.48-2,2a156.66,156.66,0,0,0-3.38,22.5,147.16,147.16,0,0,0,.33,25.79,96.12,96.12,0,0,1,19.66-12.29c7.77-3.53,18.41-5.28,23.39-3.94,4.45,1.2,7.23,5.58,9.71,8.18a127,127,0,0,1,11.56,13.93,4.89,4.89,0,0,1,.67,1.67c0,.12,1,104.78,1.07,116,0,.32,2,.32,2,0-.1-11.26-1-115.86-1.05-116a11.41,11.41,0,0,0-1-2.59C134.24,115.72,125.8,105.56,123.67,103.19Z"/>
                        <path class="cls-3" d="M149.65,103.19c2.58-2.88,5.84-6.71,8.49-7.68s4.4-1.44,6.82-2.53a72.38,72.38,0,0,0,33.79-30.61c.12.52,1.88,1.48,2,2a156.75,156.75,0,0,1,3.37,22.5,148.24,148.24,0,0,1-.32,25.79,96.36,96.36,0,0,0-19.67-12.29c-7.76-3.53-18.4-5.28-23.38-3.94-4.45,1.2-7.24,5.58-9.72,8.18a127.8,127.8,0,0,0-11.55,13.93,4.69,4.69,0,0,0-.67,1.67c0,.12-.95,104.78-1.07,116,0,.32-2,.32-2,0,.1-11.26,1-115.86,1.05-116a11,11,0,0,1,1-2.59C139.08,115.72,147.52,105.56,149.65,103.19Z"/>
                    </g>
                    <g id="olhos"><path class="cls-3" d="M109.89,60.23c-10.11-.3-13.75-7.16-14-13.16-.19-4.9.94-11.94,6.82-14,5.19-1.78,20.69-3.46,25.58,3C132.24,41.34,120.78,60.55,109.89,60.23Z"/>
                        <path class="cls-3" d="M162.88,60.23c10.12-.3,13.75-7.16,14-13.16.19-4.9-1-11.94-6.83-14-5.19-1.78-20.69-3.46-25.58,3C140.53,41.34,152,60.55,162.88,60.23Z"/>
                    </g>
                    <path id="nariz" class="cls-3" d="M142.25,53c0,2.21-4.26,5.33-5.86,5.33s-5.87-3.12-5.87-5.33,2.33-2.67,5.87-2.67S142.25,50.83,142.25,53Z"/>
                    <g id="boca"><path class="cls-3" d="M147.8,73.37c-5.1,0-8.08-1.59-9.32-2.45a1.51,1.51,0,0,0-1.51-.13c-2.38,1.14-9.45,4-15.17,1.58-4.57-2-4.31-5.61-3.59-7.92a.92.92,0,0,1,1.66-.2,9.47,9.47,0,0,0,4.93,4.12c3.78,1.52,9.29.17,11.74-.58a3,3,0,0,1,2.34.28,15.49,15.49,0,0,0,8.92,2.3,12.64,12.64,0,0,0,6-2.12.75.75,0,0,1,1.08,1A7.64,7.64,0,0,1,147.8,73.37Z"/></g>
                    <path class="cls-4" d="M140.89,41.37c-.11-1.8-2.08-3.23-4.39-3.27-2.47-.05-4.62,1.34-4.61,3.27"/>
            </g>
        </g>
</svg>